<svg width="146" height="146" version="1.1" xmlns="http://www.w3.org/2000/svg" xmlns:xlink="http://www.w3.org/1999/xlink"><path d="M123.95 50.86L123.95 50.86Q123.95 52.61 121.33 57.43L121.33 57.43Q119.87 60.20 119.87 62.24L119.87 62.24L119.14 95.97Q119.14 100.64 116.65 107.80L116.65 107.80Q114.17 114.66 111.11 113.34L111.11 113.34Q109.21 111.01 104.10 102.10L104.10 102.10Q103.81 101.66 103.66 101.23L103.66 101.23Q98.84 100.93 81.47 101.96L81.47 101.96L80.59 101.96Q80.30 105.61 78.99 106.92L78.99 106.92Q71.98 106.48 73.73 85.17L73.73 85.17Q74.17 79.33 74.17 78.60L74.17 78.60Q74.17 59.62 68.91 49.69L68.91 49.69Q70.52 47.50 76.65 51.88L76.65 51.88Q77.53 52.46 77.82 52.61L77.82 52.61L83.66 51.73L88.91 33.19Q90.67 25.31 89.94 18.74L89.94 18.74Q88.77 16.84 88.77 16.25L88.77 16.25Q90.37 13.92 96.51 14.50L96.51 14.50Q97.97 14.65 98.55 14.65L98.55 14.65Q103.51 16.40 103.66 16.55L103.66 16.55Q104.54 16.98 105.12 17.86L105.12 17.86L104.83 19.76Q101.03 24.58 93.88 38.30L93.88 38.30L88.77 47.79Q87.60 49.54 86.43 51.00L86.43 51.00Q89.94 50.56 101.03 46.91L101.03 46.91Q108.48 44.43 113.30 44.43L113.30 44.43Q120.89 47.35 123.95 50.86ZM110.23 55.09L110.23 55.09L109.50 53.34Q107.75 52.02 105.27 52.17L105.27 52.17L99.28 53.63L80.74 57.72Q80.45 57.86 80.15 57.86L80.15 57.86L79.86 74.36Q95.34 69.40 101.03 70.71L101.03 70.71Q104.83 71.59 105.56 74.80L105.56 74.80Q104.54 75.97 104.24 75.97L104.24 75.97Q102.49 76.70 79.86 78.30L79.86 78.30L80.59 97.14L98.70 94.36Q100.59 94.22 102.35 94.22L102.35 94.22Q104.83 94.36 108.48 97.43L108.48 97.43Q108.77 97.58 109.06 97.87L109.06 97.87L109.79 96.85Q111.25 82.98 110.96 67.65L110.96 67.65Q110.81 61.51 110.23 55.09ZM62.78 81.52L62.78 81.52L60.30 81.22L48.91 72.76Q48.03 81.52 47.89 109.99L47.89 109.99Q47.89 111.74 47.89 113.34L47.89 113.34Q47.89 118.89 43.36 122.54L43.36 122.54Q40.30 121.67 38.69 114.95L38.69 114.95Q38.54 114.37 38.40 114.22L38.40 114.22Q36.94 108.82 39.57 98.16L39.57 98.16Q41.32 91.15 41.46 87.79L41.46 87.79Q42.05 71.44 41.90 67.35L41.90 67.35Q32.12 86.48 12.56 102.39L12.56 102.39L10.80 102.54L10.37 101.96L10.66 100.93L10.80 100.79Q12.12 98.45 18.98 89.69L18.98 89.69Q20.15 88.23 21.02 86.92L21.02 86.92Q34.16 69.54 40.00 56.11L40.00 56.11L27.30 58.16Q20.59 58.59 16.94 55.09L16.94 55.09Q16.94 54.36 18.98 53.48L18.98 53.48Q24.24 53.05 39.71 49.40L39.71 49.40Q41.17 49.10 42.49 48.81L42.49 48.81L42.78 29.69Q42.19 17.13 37.67 10.71L37.67 10.71Q37.67 6.62 44.38 9.54L44.38 9.54Q50.22 12.17 52.41 15.52L52.41 15.52Q53.00 16.25 53.00 16.84L53.00 16.84Q53.00 17.28 51.83 20.78L51.83 20.78Q51.68 20.93 51.68 21.07L51.68 21.07Q49.35 27.79 49.20 45.31L49.20 45.31Q49.20 45.89 49.06 46.48L49.06 46.48L57.52 45.16Q61.76 45.02 64.09 48.08L64.09 48.08Q63.95 50.71 50.37 53.63L50.37 53.63Q49.49 53.78 49.06 53.92L49.06 53.92L48.62 68.52L48.62 68.67L57.82 71.00Q63.07 73.05 63.95 77.14L63.95 77.14L64.09 78.30Q64.09 80.79 62.78 81.52Z" stroke="#000" fill="black" /></svg>