<svg width="146" height="146" version="1.1" xmlns="http://www.w3.org/2000/svg" xmlns:xlink="http://www.w3.org/1999/xlink"><path d="M105.27 58.49L105.27 58.49Q102.64 58.49 99.86 53.67L99.86 53.67Q91.69 54.11 80.15 56.16L80.15 56.16L79.72 59.08Q79.57 59.51 79.13 59.81L79.13 59.81Q74.02 59.66 73 46.67L73 46.67Q72.56 41.12 72.42 40.53L72.42 40.53Q70.08 29.44 67.89 25.64L67.89 25.64Q67.31 24.33 66.43 23.31L66.43 23.31Q66.14 22.58 67.60 21.85L67.60 21.85Q68.62 21.85 73 23.89L73 23.89Q74.46 24.62 75.19 24.47L75.19 24.47Q75.77 24.47 82.34 22.28L82.34 22.28Q82.78 22.28 83.22 22.14L83.22 22.14L103.66 16.74Q105.41 16.30 106.73 16.15L106.73 16.15Q110.23 15.57 115.63 20.24L115.63 20.24Q116.65 21.12 117.53 21.99L117.53 21.99Q118.99 23.60 116.36 26.37L116.36 26.37L114.76 28.42L114.76 28.56Q114.32 29.73 111.11 44.04L111.11 44.04Q108.48 55.72 105.27 58.49ZM76.65 28.56L76.65 28.56L77.23 37.03L77.67 38.78L87.31 35.13Q96.80 32.21 99.86 36.45L99.86 36.45Q99.86 37.76 98.70 38.05L98.70 38.05Q93.15 39.95 77.96 41.70L77.96 41.70L79.86 52.21L94.02 48.71Q96.65 48.42 97.97 48.71L97.97 48.71L100.45 50.32Q101.18 50.46 101.91 49.15L101.91 49.15Q103.95 45.06 106.43 31.34L106.43 31.34Q106.87 28.85 106.87 27.69L106.87 27.69Q107.02 24.91 106.58 23.74Q106.14 22.58 104.97 22.14L104.97 22.14Q104.24 21.85 103.22 21.85L103.22 21.85Q95.92 21.99 80.01 27.39L80.01 27.39Q77.96 28.12 76.65 28.56ZM125.41 70.03L125.41 70.03Q126.00 71.92 123.52 75.28L123.52 75.28Q122.79 76.30 122.49 76.89L122.49 76.89Q121.03 81.41 119.57 94.26L119.57 94.26Q119.28 96.74 118.99 98.64L118.99 98.64Q117.53 109.30 114.61 115.43L114.61 115.43Q114.17 116.31 113.88 116.75L113.88 116.75Q112.42 118.50 110.81 118.06L110.81 118.06Q109.50 116.16 105.70 108.13L105.70 108.13Q105.27 106.96 104.68 106.09L104.68 106.09Q87.89 106.53 76.36 109.01L76.36 109.01Q76.65 110.91 76.07 112.51L76.07 112.51Q75.77 113.39 75.19 114.12L75.19 114.12Q71.25 113.68 69.50 107.84L69.50 107.84Q69.35 107.11 69.20 106.53L69.20 106.53Q68.91 104.92 68.33 91.34L68.33 91.34Q68.04 86.52 67.45 83.17L67.45 83.17Q66.43 77.18 64.68 72.95L64.68 72.95L63.07 69.73Q62.93 69.15 63.36 68.71L63.36 68.71Q63.66 68.42 63.95 68.27L63.95 68.27Q67.45 68.86 70.81 71.34L70.81 71.34Q91.83 68.86 99.43 67.11L99.43 67.11L112.13 63.31L112.42 63.31Q116.65 62.58 123.81 68.71L123.81 68.71Q124.54 69.30 125.41 70.03ZM112.27 71.34L112.27 71.34Q110.96 69.88 107.31 70.03L107.31 70.03L73.88 75.87L74.17 87.40L88.48 83.90Q103.37 80.98 103.95 86.82L103.95 86.82Q103.66 87.55 102.93 87.84L102.93 87.84Q98.99 88.86 77.53 90.90L77.53 90.90Q75.77 91.05 74.61 91.20L74.61 91.20L75.92 104.04Q83.07 103.17 99.57 99.96L99.57 99.96Q103.51 99.23 107.16 102.15L107.16 102.15Q108.92 103.31 110.08 102.44L110.08 102.44Q112.13 94.99 112.71 79.95L112.71 79.95Q113.00 73.68 112.27 71.34ZM56.36 31.19L47.16 24.62Q35.19 44.62 23.21 58.49L23.21 58.49Q13.29 70.03 8.76 69.59L8.76 69.59L8.76 68.27Q28.47 44.18 36.65 28.27L36.65 28.27Q37.96 25.79 39.13 23.31L39.13 23.31Q41.76 17.76 42.19 16.01L42.19 16.01Q42.49 14.84 41.17 8.12L41.17 8.12Q41.03 7.54 41.03 7.10L41.03 7.10L41.90 6.22Q46.28 6.08 50.52 9.87L50.52 9.87Q54.46 13.38 53.00 16.88L53.00 16.88Q50.95 18.20 49.06 21.85L49.06 21.85L57.38 23.60Q63.80 25.79 64.24 31.34L64.24 31.34Q64.39 34.40 62.49 34.69L62.49 34.69Q61.47 34.84 60.01 33.96L60.01 33.96L56.50 31.34L56.36 31.19ZM63.51 78.49L63.51 79.37Q62.34 80.10 55.19 86.09L55.19 86.09Q52.41 88.28 50.22 89.59L50.22 89.59L49.79 88.86L54.17 80.68Q55.48 77.33 55.19 74.41L55.19 74.41Q56.94 71.78 61.76 76.60L61.76 76.60Q63.07 77.76 63.51 78.49L63.51 78.49ZM63.22 92.36L63.22 92.36Q57.96 96.16 41.46 103.46L41.46 103.46Q31.24 108.13 25.84 111.49L25.84 111.49L23.80 111.49Q23.36 111.20 18.98 108.42L18.98 108.42Q15.33 106.09 15.91 102.88L15.91 102.88Q16.94 102.00 21.02 102.00L21.02 102.00Q22.19 102.00 22.92 101.85L22.92 101.85L41.03 97.04L41.03 74.41Q31.10 75.87 27.16 74.41L27.16 74.41L25.40 73.53L25.26 72.36Q26.57 71.63 38.54 69.44L38.54 69.44Q39.86 69.30 40.88 69.00L40.88 69.00Q41.32 64.62 40.88 61.12L40.88 61.12Q40.44 58.05 39.42 55.72L39.42 55.72Q36.06 56.01 33.87 55.43L33.87 55.43Q31.54 54.99 29.93 53.38L29.93 53.38Q29.49 52.36 31.39 51.92L31.39 51.92Q40.88 50.61 51.54 46.08L51.54 46.08L56.94 46.67Q58.69 47.10 59.42 48.42L59.42 48.42Q59.13 50.46 54.17 51.78L54.17 51.78Q53.73 51.92 53.44 52.07L53.44 52.07Q46.43 53.97 44.68 54.84L44.68 54.84Q48.47 56.30 48.03 62.14L48.03 62.14Q47.60 66.08 47.60 66.52L47.60 66.52Q54.02 64.77 55.77 64.77L55.77 64.77Q57.09 64.92 58.11 65.35L58.11 65.35Q60.59 66.08 60.88 67.69L60.88 67.69L60.44 68.71Q57.23 70.03 47.60 72.36L47.60 72.36Q47.45 73.38 46.57 91.78L46.57 91.78Q46.43 93.68 46.28 95.28L46.28 95.28Q46.72 95.28 58.40 91.93L58.40 91.93Q61.90 91.05 63.22 90.76L63.22 90.76Q63.80 91.05 63.22 92.36ZM23.80 82.87L23.80 82.87Q23.80 80.83 24.38 80.54L24.38 80.54Q33.43 84.33 35.19 87.84L35.19 87.84Q36.21 89.74 35.48 92.36L35.48 92.36Q34.89 94.85 32.70 93.68L32.70 93.68Q29.35 91.93 24.53 84.19L24.53 84.19Q24.09 83.46 23.80 82.87Z" stroke="#000" fill="black" /></svg>