<svg width="146" height="146" version="1.1" xmlns="http://www.w3.org/2000/svg" xmlns:xlink="http://www.w3.org/1999/xlink"><path d="M127.75 113.33L128.77 114.79L127.90 115.52Q112.27 116.98 104.10 116.39L104.10 116.39Q96.80 110.99 79.57 87.63L79.57 87.63Q77.82 85.15 76.80 83.98L76.80 83.98L76.80 124.13Q76.80 133.04 74.31 135.96L74.31 135.96L72.56 137.56Q69.20 137.42 67.31 126.76L67.31 126.76Q66.87 124.28 66.87 122.96L66.87 122.96Q66.87 121.50 67.89 117.56L67.89 117.56Q70.66 108.22 70.52 88.51L70.52 88.51Q70.52 85.44 70.52 83.98L70.52 83.98Q57.09 104.86 39.13 114.50L39.13 114.50Q36.50 115.96 33.73 117.12L33.73 117.12Q28.03 119.31 26.86 119.31L26.86 119.31Q25.55 119.31 24.09 119.02L24.09 119.02L24.09 118.58L43.07 105.74Q60.30 93.03 65.41 79.75L65.41 79.75L56.36 80.92Q56.21 81.06 55.48 82.81L55.48 82.81Q55.33 83.11 55.04 83.25L55.04 83.25L54.17 82.96Q50.95 80.92 49.35 72.16L49.35 72.16Q48.62 68.65 48.18 67.34L48.18 67.34Q45.84 59.45 42.49 53.18L42.49 53.18Q42.49 52.01 43.22 51.42L43.22 51.42Q49.64 53.18 60.74 50.40L60.74 50.40Q67.31 48.80 70.23 48.36L70.23 48.36L70.66 47.92L70.52 37.99L59.42 38.87Q56.94 38.72 55.04 37.99L55.04 37.99Q53.87 37.55 52.85 36.68L52.85 36.68Q53.29 35.36 54.90 34.93L54.90 34.93Q57.38 34.78 68.77 32.30L68.77 32.30L70.23 32.01Q70.23 23.83 64.68 16.38L64.68 16.38L64.68 14.49Q66.87 11.71 74.75 16.24L74.75 16.24Q78.55 18.43 79.57 20.03L79.57 20.03Q80.15 21.06 77.96 28.79L77.96 28.79Q77.82 29.23 77.67 29.52L77.67 29.52L89.50 26.17Q94.90 25.29 98.26 28.65L98.26 28.65Q98.26 30.11 96.36 30.69L96.36 30.69L77.53 36.09L76.80 36.68L76.50 46.75Q79.42 46.90 88.62 45.00L88.62 45.00Q94.75 43.69 99.28 44.12L99.28 44.12L106.58 48.94Q108.19 50.26 109.21 51.57L109.21 51.57Q109.21 53.76 106.14 56.39L106.14 56.39Q104.83 57.41 104.24 58.14L104.24 58.14Q103.22 59.60 98.26 70.99L98.26 70.99L95.19 76.97Q94.46 78.14 93.88 78.58L93.88 78.58Q92.56 79.60 90.08 79.60L90.08 79.60Q88.62 78.29 88.62 76.83L88.62 76.83Q80.45 77.12 76.80 78.29L76.80 78.29Q93.00 93.76 95.48 95.81L95.48 95.81Q106.73 105.44 123.52 111.72L123.52 111.72Q125.56 112.45 127.75 113.33L127.75 113.33ZM95.19 50.55L95.19 50.55L94.32 49.23Q86.14 49.23 76.80 51.13L76.80 51.13L76.80 59.75Q82.93 59.75 84.53 60.48L84.53 60.48Q85.85 61.06 86.43 62.08L86.43 62.08L86.72 63.69Q85.26 64.56 79.86 65.15L79.86 65.15L76.80 65.88L77.09 73.18Q82.64 71.43 87.89 71.86L87.89 71.86Q88.62 71.86 89.21 72.01L89.21 72.01Q93.73 58.14 95.19 50.55ZM70.52 74.49L70.66 67.05L61.76 67.92Q59.86 66.75 59.57 65.73L59.57 65.73L70.66 61.64L70.66 52.45L56.94 55.51Q54.31 56.39 52.27 57.26L52.27 57.26L56.21 77.27L70.52 74.49ZM44.53 35.36L44.53 35.36Q44.53 37.26 41.03 40.04L41.03 40.04L39.27 41.64Q33.43 48.07 32.27 49.67L32.27 49.67Q31.39 50.99 30.95 52.30L30.95 52.30Q30.95 54.34 35.33 60.33L35.33 60.33Q41.17 68.51 41.17 74.49L41.17 74.49Q41.17 78.58 38.69 81.21L38.69 81.21Q37.08 82.81 35.04 82.08L35.04 82.08Q31.24 78.14 21.02 70.26L21.02 70.26L20.88 69.53L29.35 71.86Q32.41 72.30 33.14 70.84L33.14 70.84Q33.14 66.75 28.91 59.16L28.91 59.16Q27.30 56.10 26.72 54.34L26.72 54.34L26.86 51.57L33.43 38.87Q33.43 37.70 31.97 36.68L31.97 36.68Q30.51 36.82 24.38 38.87L24.38 38.87Q24.09 39.01 23.65 39.16L23.65 39.16Q23.36 39.31 19.42 39.89L19.42 39.89Q16.94 40.33 16.94 41.79L16.94 41.79Q16.94 42.37 17.37 43.25L17.37 43.25L16.50 100.48L16.64 114.79Q16.06 125.30 12.99 126.76L12.99 126.76Q11.53 126.61 9.64 123.40L9.64 123.40Q6.13 118.15 8.32 108.80L8.32 108.80Q9.78 101.94 9.93 100.48L9.93 100.48Q12.99 79.02 11.68 57.41L11.68 57.41Q11.39 51.72 10.66 47.48L10.66 47.48Q10.51 45.88 7.74 36.82L7.74 36.82Q7.01 34.78 6.72 33.17L6.72 33.17Q9.93 31.28 15.18 35.36L15.18 35.36Q15.77 35.80 16.35 36.39L16.35 36.39Q26.57 35.22 34.89 29.38L34.89 29.38Q39.42 29.38 44.53 35.36Z" stroke="#000" fill="black" /></svg>