<?xml version="1.0" encoding="UTF-8" standalone="no"?>
        <svg 
    viewBox="14.6484375 -76.6845703125 437.255859375 50.3173828125"
    width="422.607421875"
    height="127.001953125"
   xmlns="http://www.w3.org/2000/svg"
   xmlns:svg="http://www.w3.org/2000/svg">
   <path d="M57.71-2.78L57.71-2.78Q58.74-5.57 63.72-9.52L63.72-9.52Q69.29-14.21 77.71-23.44Q86.13-32.67 86.43-34.28L86.43-34.28Q86.13-34.57 84.16-34.57Q82.18-34.57 78.96-34.28L78.96-34.28Q77.05-34.13 75.73-34.13L75.73-34.13Q73.54-34.13 72.14-34.50Q70.75-34.86 68.99-36.91L68.99-36.91L65.48-39.55L65.33-57.57Q64.89-64.89 64.89-69.14L64.89-69.14Q64.89-71.19 65.11-73.83Q65.33-76.46 66.06-77.34L66.06-77.34Q66.80-78.37 69.58-78.74Q72.36-79.10 79.98-79.39L79.98-79.39L92.72-79.98L92.72-90.23L77.20-90.23Q66.65-90.23 63.72-90.45Q60.79-90.67 60.50-91.99L60.50-91.99Q59.47-93.90 59.47-95.36Q59.47-96.83 60.79-98.44L60.79-98.44Q61.38-99.46 64.53-99.83Q67.68-100.20 77.64-100.49L77.64-100.49L93.16-101.07L93.46-105.76Q93.46-107.81 93.97-109.72Q94.48-111.62 95.36-112.35L95.36-112.35Q96.39-113.67 97.12-113.75Q97.85-113.82 98.00-113.82L98.00-113.82Q99.32-113.82 101.66-112.94L101.66-112.94Q103.27-112.65 103.64-111.47Q104.00-110.30 104.00-106.49L104.00-106.49Q104.00-105.76 104.00-105.03L104.00-105.03Q104.00-101.37 105.83-100.56Q107.67-99.76 114.99-99.76L114.99-99.76Q117.04-99.76 119.53-99.76L119.53-99.76Q126.71-99.76 129.05-99.46Q131.40-99.17 132.57-97.85L132.57-97.85Q134.03-96.24 134.11-95.21Q134.18-94.19 134.18-94.04L134.18-94.04Q134.18-92.43 133.01-90.67L133.01-90.67Q132.57-89.36 130.81-89.28Q129.05-89.21 127.44-89.21L127.44-89.21Q124.22-89.21 118.07-89.36L118.07-89.36L104.00-90.23L104.00-79.98L116.46-79.69Q124.37-79.39 127.00-79.03Q129.64-78.66 130.37-77.49L130.37-77.49Q131.40-73.54 131.47-64.75Q131.54-55.96 131.54-54.35L131.54-54.35Q131.54-41.02 130.37-36.62L130.37-36.62Q129.93-34.86 128.54-34.50Q127.15-34.13 124.22-34.13L124.22-34.13Q122.31-34.13 119.53-34.28L119.53-34.28Q115.43-34.28 112.65-34.06Q109.86-33.84 109.28-33.25L109.28-33.25Q109.28-32.96 112.87-29.00Q116.46-25.05 122.17-19.48L122.17-19.48Q127.73-14.06 131.47-10.11Q135.21-6.15 135.35-5.57L135.35-5.57Q135.35-4.83 134.99-3.88Q134.62-2.93 133.89-2.20L133.89-2.20Q132.42 0 130.52 0L130.52 0Q129.79 0 127.95-0.66Q126.12-1.32 120.70-6.59L120.70-6.59Q117.48-9.52 114.48-12.30Q111.47-15.09 109.86-16.41L109.86-16.41Q108.25-17.72 107.08-19.04Q105.91-20.36 105.62-21.09L105.62-21.09Q104.88-23.00 104.44-23.00L104.44-23.00Q104.00-23.00 103.64-20.51Q103.27-18.02 103.27-7.47L103.27-7.47Q103.27 4.69 102.47 7.62Q101.66 10.55 98.88 10.55L98.88 10.55Q98.58 10.55 98.29 10.55L98.29 10.55Q98.00 10.55 97.85 10.55L97.85 10.55Q95.07 10.55 94.04 6.74Q93.02 2.93 92.72-8.79L92.72-8.79Q92.72-14.50 92.43-18.46Q92.14-22.41 91.85-22.71L91.85-22.71Q91.85-22.71 91.70-22.71L91.70-22.71Q91.41-22.71 90.09-21.39Q88.77-20.07 86.57-17.72L86.57-17.72Q74.71-3.52 69.80 0.07Q64.89 3.66 62.40 3.66L62.40 3.66Q60.64 3.66 59.47 2.34L59.47 2.34Q57.42 0.73 57.42-1.17L57.42-1.17Q57.42-2.05 57.71-2.78ZM15.09-99.32L15.09-99.32Q15.38-107.67 16.70-107.67L16.70-107.67Q16.70-107.67 16.70-107.67L16.70-107.67Q17.87-108.69 21.53-108.91Q25.20-109.13 36.04-109.13L36.04-109.13Q49.22-109.13 52.51-108.47Q55.81-107.81 55.81-105.18L55.81-105.18Q55.81-105.03 55.81-104.74L55.81-104.74Q55.52-102.54 52.73-94.92Q49.95-87.30 47.61-82.76L47.61-82.76Q47.02-81.59 47.02-80.27L47.02-80.27Q47.02-79.83 47.17-78.66Q47.31-77.49 49.22-72.07L49.22-72.07Q51.86-64.16 53.03-55.52Q54.20-46.88 54.20-42.77L54.20-42.77Q54.20-39.55 53.61-37.79L53.61-37.79Q52.29-34.13 47.31-34.13L47.31-34.13Q47.17-34.13 44.38-34.20Q41.60-34.28 33.11-38.53L33.11-38.53Q29.88-39.84 27.91-40.80Q25.93-41.75 25.78-41.75L25.78-41.75L25.78-34.57Q25.78-27.69 25.93-17.72L25.93-17.72Q26.37-6.74 26.37-1.03L26.37-1.03Q26.37 1.76 26.15 4.83Q25.93 7.91 24.90 8.35L24.90 8.35Q23.14 10.11 21.39 10.11L21.39 10.11Q20.65 10.11 18.97 9.23Q17.29 8.35 15.67 3.66L15.67 3.66Q15.23 1.76 14.94-12.96Q14.65-27.69 14.65-52.73L14.65-52.73Q14.65-90.67 15.09-99.32ZM26.22-51.71L26.22-51.71Q26.51-51.12 26.95-51.12L26.95-51.12Q27.10-51.12 27.25-51.12L27.25-51.12Q28.56-51.42 29.88-51.42L29.88-51.42Q30.91-51.42 32.52-51.05Q34.13-50.68 37.06-48.49L37.06-48.49Q40.72-45.56 42.19-45.56L42.19-45.56Q42.63-45.56 42.85-45.92Q43.07-46.29 43.07-47.61L43.07-47.61Q43.07-50.24 42.04-56.40L42.04-56.40Q41.02-62.84 38.75-68.99Q36.47-75.15 34.72-76.46L34.72-76.46Q33.98-77.05 33.98-78.22L33.98-78.22Q33.98-78.96 34.35-80.49Q34.72-82.03 37.06-86.72L37.06-86.72Q38.67-89.65 39.55-92.07Q40.43-94.48 40.72-95.51L40.72-95.51Q40.72-95.65 40.72-95.80L40.72-95.80Q40.72-96.53 39.55-96.90Q38.38-97.27 33.69-97.56L33.69-97.56L26.22-97.85L25.93-77.78L25.93-54.35Q25.93-53.91 25.93-53.47L25.93-53.47Q25.93-52.29 26.22-51.71ZM104.00-47.17L104.00-43.51L120.70-44.09L120.85-48.34L121.14-52.29L113.23-52.29Q109.86-52.29 107.45-52.15Q105.03-52.00 104.88-51.42L104.88-51.42Q104.59-51.12 104.30-49.95Q104.00-48.78 104.00-47.17L104.00-47.17ZM83.50-52.29L75.59-52.29L75.88-48.34L76.03-44.09L84.52-43.80Q86.87-43.65 88.48-43.65L88.48-43.65Q90.97-43.65 91.85-43.95Q92.72-44.24 92.72-45.41L92.72-45.41Q92.72-45.56 92.72-45.85L92.72-45.85Q92.72-46.73 92.58-47.90Q92.43-49.07 92.14-50.10L92.14-50.10Q91.85-51.71 90.45-52.00Q89.06-52.29 83.50-52.29L83.50-52.29ZM81.59-69.58L75.59-69.14L76.03-62.26L92.14-62.26L92.14-65.92Q92.14-66.36 92.14-66.80L92.14-66.80Q92.14-69.29 91.11-69.58Q90.09-69.87 88.04-69.87L88.04-69.87Q85.69-69.87 81.59-69.58L81.59-69.58ZM120.85-69.43L105.03-69.43L105.03-62.26L120.41-62.26L120.70-65.63L120.85-69.43ZM224.85-84.38L224.85-84.38Q226.17-86.57 232.62-86.57L232.62-86.57Q233.64-86.57 234.81-86.57L234.81-86.57L242.72-86.57L242.72-89.21Q243.31-92.87 247.56-101.44Q251.81-110.01 254.15-112.35L254.15-112.35Q255.91-113.67 256.27-113.75Q256.64-113.82 256.79-113.82L256.79-113.82Q257.52-113.82 259.13-113.09L259.13-113.09Q262.06-112.21 262.06-109.13L262.06-109.13Q262.06-108.40 261.55-105.76Q261.04-103.13 254.15-89.94L254.15-89.94L252.54-86.57L264.99-86.28Q275.54-86.28 281.03-85.62Q286.52-84.96 287.55-83.35L287.55-83.35Q287.99-82.91 287.99-77.78L287.99-77.78Q287.99-75.15 287.77-67.53Q287.55-59.91 286.08-33.25L286.08-33.25Q285.21-23.73 284.84-15.82Q284.47-7.91 284.47-5.57L284.47-5.57Q284.18-2.93 283.81-1.10Q283.45 0.73 282.57 1.32L282.57 1.32Q282.13 2.05 276.20 2.49Q270.26 2.93 254.88 3.08L254.88 3.08Q242.72 3.52 236.57 3.52L236.57 3.52Q233.50 3.52 230.35 3.30Q227.20 3.08 226.76 1.76L226.76 1.76Q225.44 1.03 225-2.78Q224.56-6.59 224.56-19.78L224.56-19.78Q224.56-28.27 224.41-35.67Q224.27-43.07 224.27-46.14L224.27-46.14Q224.12-49.07 223.97-55.37Q223.83-61.67 223.83-68.26L223.83-68.26Q223.68-71.92 223.68-74.71L223.68-74.71Q223.68-82.47 224.85-84.38ZM162.74-31.79L162.74-31.79Q163.92-35.60 167.87-45.12L167.87-45.12Q171.83-54.93 176.07-64.23Q180.32-73.54 183.69-79.98L183.69-79.98Q183.69-80.13 181.71-80.42Q179.74-80.71 176.81-81.01L176.81-81.01Q170.21-81.45 168.24-82.25Q166.26-83.06 165.82-85.25L165.82-85.25Q165.38-86.28 165.38-87.16L165.38-87.16Q165.38-87.45 165.45-88.04Q165.53-88.62 166.26-89.94L166.26-89.94Q167.14-91.55 168.38-91.70Q169.63-91.85 170.65-91.85L170.65-91.85Q172.85-91.85 177.10-91.55L177.10-91.55L186.62-90.97L186.91-96.53Q186.91-102.83 187.72-107.45Q188.53-112.06 189.84-113.09L189.84-113.09Q191.02-113.82 192.63-113.82L192.63-113.82Q192.92-113.82 194.02-113.75Q195.12-113.67 196.58-112.65L196.58-112.65Q197.75-112.06 197.97-109.86Q198.19-107.67 198.49-101.51L198.49-101.51L198.49-91.55L205.66-91.26Q208.74-91.26 211.01-90.89Q213.28-90.53 213.72-90.23L213.72-90.23Q215.48-88.48 215.48-86.72L215.48-86.72Q215.48-85.40 214.09-83.20Q212.70-81.01 208.01-80.42L208.01-80.42Q206.10-80.13 204.79-80.05Q203.47-79.98 203.17-79.69L203.17-79.69Q203.17-79.39 204.42-77.27Q205.66-75.15 207.71-72.22L207.71-72.22Q211.38-66.50 211.74-64.60Q212.11-62.70 212.11-62.11L212.11-62.11Q212.11-59.91 210.35-58.30L210.35-58.30Q209.18-57.28 207.86-57.28L207.86-57.28Q207.13-57.28 205.74-57.93Q204.35-58.59 202.15-61.67L202.15-61.67Q201.71-62.84 200.90-63.72Q200.10-64.60 199.51-64.60L199.51-64.60Q199.07-64.60 198.93-55.22Q198.78-45.85 198.78-26.95L198.78-26.95Q198.93-16.99 198.93-9.67L198.93-9.67Q198.93-2.34 198.71 4.47Q198.49 11.28 197.90 11.87L197.90 11.87Q196.73 13.18 194.68 13.18L194.68 13.18Q194.38 13.18 192.99 13.04Q191.60 12.89 189.99 10.99L189.99 10.99Q188.96 10.25 188.75 3.00Q188.53-4.25 188.23-26.07L188.23-26.07Q188.23-40.58 187.94-50.61Q187.65-60.64 187.35-61.52L187.35-61.52Q187.35-61.52 187.21-61.52L187.21-61.52Q187.06-61.52 186.69-61.23Q186.33-60.94 186.04-60.21L186.04-60.21Q185.89-59.33 185.23-57.79Q184.57-56.25 183.98-54.64L183.98-54.64Q183.25-52.73 181.49-48.93Q179.74-45.12 178.13-40.87L178.13-40.87Q174.17-31.35 171.90-27.54Q169.63-23.73 167.72-23.73L167.72-23.73Q167.58-23.73 167.43-23.73L167.43-23.73Q165.53-23.73 164.36-24.54Q163.18-25.34 162.30-27.25L162.30-27.25Q162.01-27.54 162.01-28.27L162.01-28.27Q162.01-29.44 162.74-31.79ZM235.69-12.16L235.69-12.16L236.13-7.62L272.90-7.62L273.34-10.25Q273.63-11.57 274.00-15.67Q274.37-19.78 274.66-25.05L274.66-25.05L275.24-36.91L266.31-36.91Q262.50-36.91 257.01-37.21Q251.51-37.50 246.68-37.79L246.68-37.79L236.13-38.23L236.13-32.67Q235.99-30.32 235.84-27.17Q235.69-24.02 235.69-21.97L235.69-21.97Q235.40-19.48 235.40-16.85Q235.40-14.21 235.69-12.16ZM255.47-74.85L235.11-74.85L235.11-62.26Q235.11-56.98 235.40-53.17Q235.69-49.37 235.99-49.07L235.99-49.07Q236.43-48.78 242.14-48.63Q247.85-48.49 255.91-48.34L255.91-48.34L275.54-48.05L276.27-60.35Q276.56-65.63 276.56-69.58L276.56-69.58L276.56-73.83Q276.27-74.41 271.66-74.63Q267.04-74.85 255.47-74.85L255.47-74.85ZM372.80-45.26L372.80-45.26Q372.80-49.80 373.97-50.24L373.97-50.24Q374.41-51.56 377.49-51.78Q380.57-52.00 385.40-52.00L385.40-52.00Q390.23-52.00 397.71-51.86L397.71-51.86Q421.58-51.27 429.13-51.05Q436.67-50.83 436.67-50.24L436.67-50.24Q436.67-50.24 436.67-50.24L436.67-50.24Q437.26-48.19 437.26-32.74Q437.26-17.29 436.67-6.45L436.67-6.45Q436.08-1.17 435.57 1.17Q435.06 3.52 434.03 4.25L434.03 4.25Q433.45 5.42 428.17 5.64Q422.90 5.86 406.05 6.15L406.05 6.15Q398.00 6.45 392.29 6.45L392.29 6.45Q382.91 6.45 378.66 5.64Q374.41 4.83 374.12 0.88L374.12 0.88Q373.97-1.03 373.54-8.35Q373.10-15.67 372.80-25.49L372.80-25.49Q372.80-33.11 372.80-38.09L372.80-38.09Q372.80-42.92 372.80-45.26ZM378.08-84.81L377.05-106.64L379.25-108.54Q379.98-109.57 384.96-110.01Q389.94-110.45 407.37-110.45L407.37-110.45L433.30-110.45L434.03-107.81Q434.33-105.32 434.33-99.61L434.33-99.61Q434.33-93.75 433.89-80.05Q433.45-66.36 432.71-61.38L432.71-61.38L431.98-58.45L409.57-58.15Q403.42-58.01 398.88-58.01L398.88-58.01Q389.50-58.01 385.03-58.52Q380.57-59.03 379.98-61.08L379.98-61.08Q379.39-62.11 378.88-68.85Q378.37-75.59 378.08-84.81L378.08-84.81ZM318.31-0.59L318.31-0.59Q318.75-4.10 322.56-5.71L322.56-5.71Q323.58-6.30 326.07-6.67Q328.56-7.03 331.20-7.32L331.20-7.32Q333.54-7.62 335.52-7.98Q337.50-8.35 338.38-8.64L338.38-8.64Q338.82-8.94 339.26-13.26Q339.70-17.58 339.70-28.42L339.70-28.42L339.84-47.17L329.88-48.19Q322.71-48.63 321.02-49.29Q319.34-49.95 319.04-51.86L319.04-51.86Q318.46-53.03 318.46-53.91L318.46-53.91Q318.46-54.20 318.60-54.71Q318.75-55.22 320.36-56.40L320.36-56.40Q321.39-57.42 323.66-57.79Q325.93-58.15 330.91-58.15L330.91-58.15L339.40-58.15L339.84-62.11Q340.14-64.16 340.14-65.77L340.14-65.77Q340.14-67.82 339.48-69.58Q338.82-71.34 336.77-71.34L336.77-71.34Q335.74-71.19 335.01-71.19L335.01-71.19Q333.25-71.19 331.86-71.70Q330.47-72.22 329.30-73.68L329.30-73.68Q328.27-75.29 328.27-76.10Q328.27-76.90 329.30-78.52L329.30-78.52Q329.88-80.13 332.52-80.49Q335.16-80.86 345.70-80.86L345.70-80.86Q352.00-80.86 356.62-80.57Q361.23-80.27 362.26-79.83L362.26-79.83Q363.57-78.96 363.87-77.49Q364.16-76.03 364.16-75.44L364.16-75.44Q364.16-73.83 363.13-72.36L363.13-72.36Q362.84-71.92 360.86-71.41Q358.89-70.90 356.25-70.61L356.25-70.61L349.95-70.02L350.24-64.31L350.24-58.45L357.57-58.45Q358.74-58.45 359.91-58.45L359.91-58.45Q363.87-58.45 365.84-57.50Q367.82-56.54 367.82-53.91L367.82-53.91Q367.82-53.61 367.82-53.17L367.82-53.17Q367.82-50.68 365.70-49.44Q363.57-48.19 357.57-47.90L357.57-47.90L349.66-47.31L349.95-29.74Q349.95-15.23 350.83-13.70Q351.71-12.16 354.35-12.16L354.35-12.16Q356.54-12.16 359.91-12.89L359.91-12.89Q361.82-13.18 363.28-13.18L363.28-13.18Q365.92-13.18 367.24-12.23Q368.55-11.28 368.55-9.23L368.55-9.23Q368.55-8.50 368.41-7.62L368.41-7.62Q368.12-6.30 367.82-5.35Q367.53-4.39 367.53-4.10L367.53-4.10Q363.57-2.34 344.75 0.95Q325.93 4.25 320.95 4.25L320.95 4.25Q318.16 3.08 318.16 0.44L318.16 0.44Q318.16 0 318.31-0.59ZM312.74-71.63L312.74-71.63Q313.04-73.54 316.70-80.35Q320.36-87.16 324.61-93.75L324.61-93.75Q326.22-96.09 328.56-99.68Q330.91-103.27 333.11-106.20L333.11-106.20Q336.91-113.38 340.43-113.38L340.43-113.38Q340.72-113.38 342.70-113.09Q344.68-112.79 354.20-103.27L354.20-103.27Q358.59-99.02 362.55-95.73Q366.50-92.43 368.12-91.41L368.12-91.41Q372.36-88.77 372.88-86.72Q373.39-84.67 373.39-83.94L373.39-83.94Q373.39-81.45 370.75-79.83L370.75-79.83Q369.87-79.39 368.85-79.39L368.85-79.39Q366.94-79.39 363.94-81.15Q360.94-82.91 353.32-90.38L353.32-90.38Q349.07-94.63 345.92-97.49Q342.77-100.34 342.33-100.63L342.33-100.63Q341.02-100.34 335.74-92.29Q330.47-84.23 325.34-75.59L325.34-75.59Q323.00-70.90 321.46-69.29Q319.92-67.68 318.02-67.68L318.02-67.68Q317.72-67.68 317.43-67.68L317.43-67.68Q315.38-67.68 314.06-68.70Q312.74-69.73 312.74-71.63ZM386.13-4.98L386.13-4.98Q388.18-3.96 398.14-3.96L398.14-3.96Q401.51-3.96 405.62-4.10L405.62-4.10L425.83-4.39L425.83-9.96Q425.83-12.60 425.98-14.79Q426.12-16.99 426.42-18.16L426.42-18.16L426.86-20.21L383.94-20.21L384.23-14.21Q384.08-12.30 384.08-10.84L384.08-10.84Q384.08-6.01 386.13-4.98ZM382.91-41.02L383.20-35.74Q383.35-33.69 383.64-32.08Q383.94-30.47 384.23-30.47L384.23-30.47L426.71-30.47L426.71-41.02L382.91-41.02ZM388.92-76.90L388.92-76.90Q388.92-75.29 389.21-73.24L389.21-73.24L389.94-68.41L423.78-68.41L423.78-79.83L406.93-79.83Q399.17-79.83 394.48-79.54Q389.79-79.25 389.21-78.96L389.21-78.96Q388.92-78.52 388.92-76.90ZM387.60-98.73L388.18-89.79L423.78-89.36L424.51-91.70Q424.51-92.72 424.58-93.60Q424.66-94.48 424.66-94.92L424.66-94.92Q424.66-95.65 424.51-96.09L424.51-96.09L424.22-98.58L406.05-98.73L387.60-98.73ZM321.09-31.93L321.09-31.93Q321.39-35.01 323.88-35.45L323.88-35.45Q324.61-35.74 325.27-35.89Q325.93-36.04 326.22-36.04L326.22-36.04Q326.37-36.04 326.37-36.04L326.37-36.04Q328.13-36.04 330.69-30.76Q333.25-25.49 335.45-17.58L335.45-17.58Q335.45-17.29 335.45-16.85L335.45-16.85Q335.45-14.94 333.98-13.33Q332.52-11.72 330.18-11.57L330.18-11.57Q327.54-11.57 325.78-14.06Q324.02-16.55 322.56-22.56L322.56-22.56Q320.95-27.69 320.95-30.62L320.95-30.62Q320.95-31.35 321.09-31.93ZM354.05-29.59L354.05-29.59Q356.25-35.01 358.59-37.35L358.59-37.35Q360.21-38.96 360.79-39.04Q361.38-39.11 361.52-39.11L361.52-39.11Q362.40-39.11 364.16-38.09L364.16-38.09Q365.92-37.35 365.92-34.86L365.92-34.86Q365.92-34.57 365.84-33.03Q365.77-31.49 363.87-25.49L363.87-25.49Q362.26-19.92 360.94-17.72Q359.62-15.53 357.71-15.53L357.71-15.53Q357.57-15.53 357.28-15.53L357.28-15.53Q355.66-15.53 354.27-17.21Q352.88-18.90 352.29-21.24L352.29-21.24Q352.15-21.83 352.15-22.56L352.15-22.56Q352.15-25.20 354.05-29.59Z"/>
    </svg>
        